<svg width="46" height="46" viewBox="0 0 46 46" fill="none" xmlns="http://www.w3.org/2000/svg">
<g clip-path="url(#clip0)">
<path d="M0.806003 36.1279H34.4055L44.7028 43.5109C44.8452 43.6139 45.0163 43.6701 45.1923 43.6709C45.3202 43.6713 45.4462 43.6398 45.559 43.579C45.8351 43.4338 46.0053 43.1454 45.9984 42.8336V3.16756C46.0066 2.94686 45.9258 2.73189 45.7744 2.57108C45.6226 2.40986 45.413 2.31673 45.1923 2.3114H0.806003C0.585297 2.31673 0.375256 2.40986 0.223879 2.57108C0.0720921 2.73189 -0.008314 2.94686 -0.000519527 3.16756V35.2976C-0.00749353 35.5159 0.0741434 35.728 0.226341 35.8843C0.378538 36.041 0.587758 36.1292 0.806003 36.1279V36.1279ZM1.6798 3.99173H44.318V41.198L35.1476 34.6101C35.0118 34.5063 34.8461 34.4497 34.675 34.4476H1.6798V3.99173Z" fill="white"/>
<path d="M35.0772 32.1384V29.1355C35.0648 25.8704 32.4221 23.2256 29.1566 23.2105H27.9358V22.1603H32.0106C32.4746 22.1603 32.8717 21.8202 32.8717 21.3562V17.3203C34.0725 16.9687 34.8975 15.8677 34.8975 14.6169C34.8975 13.3656 34.0725 12.2646 32.8717 11.913V8.69428C32.8598 8.23072 32.4742 7.8652 32.0106 7.87751H23.735V6.61726C23.735 6.15329 23.3588 5.7771 22.8948 5.7771C22.4308 5.7771 22.0546 6.15329 22.0546 6.61726V7.87751H13.9894C13.5258 7.8652 13.1402 8.23072 13.1279 8.69428V11.913C11.9276 12.2646 11.1026 13.3656 11.1026 14.6169C11.1026 15.8677 11.9276 16.9687 13.1279 17.3203V21.3562C13.1279 21.8202 13.5258 22.1603 13.9894 22.1603H18.0639V23.2105H16.843C13.5779 23.2256 10.9352 25.8704 10.9225 29.1355V32.1384C10.934 32.6069 11.318 32.9798 11.7864 32.9774H34.2136C34.6817 32.9798 35.0661 32.6069 35.0772 32.1384V32.1384ZM33.2171 14.6169C33.2159 14.9237 33.0916 15.217 32.8717 15.4312V13.8021C33.0916 14.0167 33.2159 14.31 33.2171 14.6169ZM12.7829 14.6169C12.7841 14.31 12.9084 14.0167 13.1279 13.8021V15.4312C12.9084 15.217 12.7841 14.9237 12.7829 14.6169ZM14.8082 9.55783H31.1914V20.4799H14.8082V9.55783ZM19.7442 22.1603H26.2554V23.2105H19.7442V22.1603ZM27.8308 31.297H18.1689V28.9866H27.8308V31.297ZM33.3968 31.297H29.5111V28.1411C29.5148 27.9204 29.4294 27.7079 29.2744 27.5508C29.1193 27.3941 28.9076 27.3059 28.6873 27.3063H17.3127C17.0924 27.3059 16.8807 27.3941 16.7257 27.5508C16.5706 27.7079 16.4853 27.9204 16.4886 28.1411V31.297H12.6028V29.1355C12.6143 26.798 14.5055 24.9047 16.843 24.8908H29.1566C31.4946 24.9047 33.3853 26.798 33.3968 29.1355V31.297Z" fill="white"/>
<path d="M28.2509 16.5941C28.2509 16.1302 27.8747 15.754 27.4108 15.754H18.484C18.02 15.754 17.6439 16.1302 17.6439 16.5941V19.0096C17.6439 19.4736 18.02 19.8498 18.484 19.8498H27.4108C27.8747 19.8498 28.2509 19.4736 28.2509 19.0096V16.5941ZM26.6756 18.1694H19.3242V17.4343H26.6756V18.1694Z" fill="white"/>
<path d="M21.4246 11.5533C21.4246 11.0893 21.0484 10.7131 20.5844 10.7131H18.0639C17.5999 10.7131 17.2237 11.0893 17.2237 11.5533V14.0738C17.2237 14.5378 17.5999 14.914 18.0639 14.914H20.5844C21.0484 14.914 21.4246 14.5378 21.4246 14.0738V11.5533ZM18.9041 12.3934H19.8493V13.2336H18.9041V12.3934Z" fill="white"/>
<path d="M28.6711 11.5533C28.6711 11.0893 28.2949 10.7131 27.8309 10.7131H25.3103C24.8463 10.7131 24.4702 11.0893 24.4702 11.5533V14.0738C24.4702 14.5378 24.8463 14.914 25.3103 14.914H27.8309C28.2949 14.914 28.6711 14.5378 28.6711 14.0738V11.5533ZM26.1505 12.3934H27.0957V13.2336H26.1505V12.3934Z" fill="white"/>
</g>
<defs>
<clipPath id="clip0">
<rect width="46" height="46" fill="white"/>
</clipPath>
</defs>
</svg>
