<svg width="53" height="52" viewBox="0 0 53 52" fill="none" xmlns="http://www.w3.org/2000/svg">
<g clip-path="url(#clip0)">
<path d="M52.752 35.1678C52.752 27.5969 47.6507 20.9822 40.457 18.9889C40.0049 8.45066 31.2915 0.0162354 20.6438 0.0162354C9.70767 0.0162354 0.810791 8.91311 0.810791 19.8493C0.810791 23.4134 1.75949 26.8836 3.56097 29.9302L0.883707 39.609L10.5628 36.9321C13.3634 38.5881 16.5225 39.521 19.7831 39.6617C21.776 46.8557 28.3911 51.9574 35.9624 51.9574C38.9844 51.9574 41.9232 51.1526 44.5054 49.6233L52.6787 51.8841L50.4179 43.7108C51.9471 41.1287 52.752 38.1899 52.752 35.1678ZM11.0431 33.6414L5.24873 35.2443L6.85168 29.4499L6.48631 28.8785C4.76448 26.1846 3.85422 23.0623 3.85422 19.8493C3.85422 10.5914 11.3859 3.05966 20.6438 3.05966C29.9017 3.05966 37.4334 10.5914 37.4334 19.8493C37.4334 29.1071 29.9017 36.6388 20.6438 36.6388C17.4308 36.6388 14.3089 35.7286 11.6146 34.0067L11.0431 33.6414ZM48.314 47.5195L44.0144 46.3299L43.4402 46.7036C41.2143 48.1496 38.6282 48.914 35.9624 48.914C30.0119 48.914 24.7829 45.0665 22.9303 39.5495C32.0424 38.499 39.2935 31.2478 40.3445 22.1354C45.8611 23.9884 49.7086 29.2173 49.7086 35.1678C49.7086 37.8336 48.9441 40.4197 47.4981 42.6456L47.1244 43.2199L48.314 47.5195Z" fill="white"/>
<path d="M19.1221 27.5085H22.1655V30.5519H19.1221V27.5085Z" fill="white"/>
<path d="M23.6872 15.2334C23.6872 16.0977 23.3353 16.8954 22.6965 17.4799L19.122 20.7516V24.4651H22.1655V22.0918L24.7512 19.7252C26.009 18.574 26.7306 16.937 26.7306 15.2334C26.7306 11.8769 24.0002 9.14655 20.6437 9.14655C17.2873 9.14655 14.5569 11.8769 14.5569 15.2334H17.6003C17.6003 13.5552 18.9655 12.19 20.6437 12.19C22.322 12.19 23.6872 13.5552 23.6872 15.2334Z" fill="white"/>
</g>
<defs>
<clipPath id="clip0">
<rect width="51.9412" height="51.9412" fill="white" transform="translate(0.810791 0.0162354)"/>
</clipPath>
</defs>
</svg>
