<svg width="45" height="45" viewBox="0 0 45 45" fill="none" xmlns="http://www.w3.org/2000/svg">
<path d="M22.4109 0C10.0337 0 0 10.0346 0 22.413C0 34.7913 10.0337 44.826 22.4109 44.826C34.7882 44.826 44.8219 34.7913 44.8219 22.413C44.8219 10.0346 34.7882 0 22.4109 0ZM22.4109 42.0243C11.5809 42.0243 2.80137 33.2441 2.80137 22.413C2.80137 11.5819 11.5809 2.80162 22.4109 2.80162C33.241 2.80162 42.0205 11.5819 42.0205 22.413C42.0205 33.2441 33.241 42.0243 22.4109 42.0243Z" fill="white"/>
<path d="M25.2129 18.211C25.2129 16.6638 23.9586 15.4094 22.4113 15.4094H18.2089V18.211H22.4113V33.62H19.6097V36.4216H28.0145V33.62H25.2129V18.211Z" fill="white"/>
<path d="M22.4112 12.6078C23.9585 12.6078 25.2129 11.3534 25.2129 9.80614C25.2129 8.25885 23.9585 7.00452 22.4112 7.00452C20.8639 7.00452 19.6096 8.25885 19.6096 9.80614C19.6096 11.3534 20.8639 12.6078 22.4112 12.6078Z" fill="white"/>
</svg>
