<svg width="77" height="1156" viewBox="0 0 77 1156" fill="none" xmlns="http://www.w3.org/2000/svg">
<path d="M35.4669 356.973C35.4669 355.044 33.9506 353.48 32.0801 353.48H27V356.973H32.0801V376.186H28.6934V379.68H38.8537V376.186H35.4669V356.973Z" fill="white"/>
<path d="M32.0801 349.987C33.9506 349.987 35.4669 348.423 35.4669 346.493C35.4669 344.564 33.9506 343 32.0801 343C30.2097 343 28.6934 344.564 28.6934 346.493C28.6934 348.423 30.2097 349.987 32.0801 349.987Z" fill="white"/>
<path d="M29.7354 43.6387H34.0127V47.916H29.7354V43.6387Z" fill="white"/>
<path d="M36.1514 26.3867C36.1514 27.6014 35.6568 28.7225 34.759 29.544L29.7354 34.1422V39.3613H34.0127V36.0258L37.6468 32.6997C39.4145 31.0818 40.4287 28.781 40.4287 26.3867C40.4287 21.6694 36.5914 17.832 31.874 17.832C27.1567 17.832 23.3193 21.6694 23.3193 26.3867H27.5967C27.5967 24.0281 29.5154 22.1094 31.874 22.1094C34.2327 22.1094 36.1514 24.0281 36.1514 26.3867Z" fill="white"/>
<circle cx="32.5" cy="32.5" r="31.5" stroke="white" stroke-width="2"/>
<circle cx="32.5" cy="197.5" r="31.5" stroke="white" stroke-width="2"/>
<line x1="32" y1="166" x2="32" y2="64" stroke="white" stroke-width="2"/>
<circle cx="32.5" cy="362.5" r="31.5" stroke="white" stroke-width="2"/>
<line x1="32" y1="331" x2="32" y2="229" stroke="white" stroke-width="2"/>
<circle cx="32.5" cy="527.5" r="31.5" stroke="white" stroke-width="2"/>
<line x1="32" y1="496" x2="32" y2="394" stroke="white" stroke-width="2"/>
<circle cx="32.5" cy="740.5" r="31.5" stroke="white" stroke-width="2"/>
<line x1="32" y1="709" x2="32" y2="559" stroke="white" stroke-width="2"/>
<circle cx="32.5" cy="932.5" r="31.5" stroke="white" stroke-width="2"/>
<line x1="32" y1="901" x2="32" y2="772" stroke="white" stroke-width="2"/>
<circle cx="32.5" cy="1123.5" r="31.5" stroke="white" stroke-width="2"/>
<line x1="32" y1="1092" x2="32" y2="964" stroke="white" stroke-width="2"/>
<path d="M32.5173 723.896C32.5173 723.387 32.1046 722.974 31.5956 722.974C31.0865 722.974 30.6738 723.387 30.6738 723.896V726.546H32.5173V723.896Z" fill="white"/>
<path d="M26.7563 737.952H36.5498V739.22H26.7563V737.952Z" fill="white"/>
<path d="M26.1804 731.385H27.6782V732.768H26.1804V731.385Z" fill="white"/>
<path d="M35.6282 731.385H37.126V732.768H35.6282V731.385Z" fill="white"/>
<path d="M45.0599 734.408C45.054 733.835 44.7556 733.305 44.2695 733.002V735.814C44.7556 735.511 45.054 734.981 45.0599 734.408Z" fill="white"/>
<path d="M23.3 751.995C23.3 751.486 23.7559 751.087 24.2649 751.087H39.0564C39.5682 751.078 39.9917 751.483 40.0065 751.995V756.272H45.3065V753.289C45.3101 750.169 42.7861 747.637 39.6672 747.63H23.6542C20.5321 747.636 18.0032 750.167 18 753.289V756.272H23.3V751.995Z" fill="white"/>
<path d="M27.2173 744.059H36.089V745.787H27.2173V744.059Z" fill="white"/>
<path d="M25.1436 752.93H38.1631V756.271H25.1436V752.93Z" fill="white"/>
<path d="M19.0369 735.814V733.002C18.5463 733.301 18.2466 733.834 18.2466 734.408C18.2466 734.983 18.5463 735.515 19.0369 735.814Z" fill="white"/>
<path d="M42.426 727.583H20.8804V742.215H42.426V727.583ZM24.3369 733.804V730.463C24.3369 729.954 24.7496 729.541 25.2586 729.541H28.5999C29.109 729.541 29.5217 729.954 29.5217 730.463V733.804C29.5217 734.313 29.109 734.726 28.5999 734.726H25.2586C24.7496 734.726 24.3369 734.313 24.3369 733.804ZM38.3934 740.141C38.3934 740.65 37.9807 741.063 37.4717 741.063H25.8347C25.3257 741.063 24.913 740.65 24.913 740.141V737.03C24.913 736.521 25.3257 736.109 25.8347 736.109H37.4717C37.9807 736.109 38.3934 736.521 38.3934 737.03V740.141ZM38.9695 733.804C38.9695 734.313 38.5568 734.726 38.0478 734.726H34.7065C34.1974 734.726 33.7847 734.313 33.7847 733.804V730.463C33.7847 729.954 34.1974 729.541 34.7065 729.541H38.0478C38.5568 729.541 38.9695 729.954 38.9695 730.463V733.804Z" fill="white"/>
<g clip-path="url(#clip0)">
<path d="M32.735 921.806H31.5852C31.5642 922.127 31.4878 922.384 31.3577 922.575C31.2269 922.765 31.0461 922.922 30.821 923.045C30.6356 923.145 30.3669 923.219 30.0116 923.272C29.6556 923.323 29.3183 923.35 29.0083 923.35V924.359H31.3087V931.768H29.0083V932.896H34.9925V931.768H32.7358V921.806H32.735Z" fill="white"/>
<path d="M40.3899 937.82C40.795 937.603 41.1774 937.324 41.5186 936.982C42.9037 935.598 43.2667 933.58 42.617 931.86C44.2926 931.104 45.4611 929.421 45.4611 927.462C45.4611 925.503 44.2926 923.822 42.617 923.064C43.2667 921.344 42.9037 919.328 41.5186 917.942C40.1344 916.557 38.1168 916.194 36.3975 916.845C35.6411 915.168 33.9585 914 31.9994 914C30.041 914 28.3584 915.168 27.6012 916.845C25.8812 916.195 23.8651 916.558 22.4801 917.943C21.0943 919.329 20.7312 921.345 21.3817 923.064C19.7061 923.822 18.5368 925.504 18.5368 927.463C18.5368 929.422 19.7053 931.104 21.3817 931.861C20.732 933.581 21.095 935.599 22.4801 936.983C22.8221 937.324 23.2038 937.604 23.6096 937.822L17.9331 948.391L22.9054 947.329L24.6581 952L30.7047 940.74C31.1175 940.854 31.5499 940.924 32.0001 940.924C32.4504 940.924 32.882 940.854 33.2948 940.74L39.3421 952L41.0949 947.329L46.0672 948.391L40.3899 937.82ZM32.0072 937.386C26.495 937.386 22.0259 932.917 22.0259 927.405C22.0259 921.893 26.4942 917.424 32.0072 917.424C37.5185 917.424 41.9884 921.893 41.9884 927.405C41.9884 932.918 37.5193 937.386 32.0072 937.386Z" fill="white"/>
</g>
<g clip-path="url(#clip1)">
<path d="M39.7394 1129.39C39.7394 1126.04 37.5512 1123.85 33.2476 1122.85V1114.12C36.3636 1114.44 36.9137 1115.91 36.9137 1118.89C36.9137 1119.05 36.9843 1119.19 37.1058 1119.28C37.2268 1119.38 37.3831 1119.41 37.5331 1119.37L39.1666 1118.96C39.3944 1118.9 39.5507 1118.69 39.5398 1118.45C39.354 1114.37 38.2152 1111.86 33.248 1111.45V1106.33C33.2476 1106.15 33.0997 1106 32.9164 1106H30.6001C30.4173 1106 30.2694 1106.15 30.2694 1106.33V1111.47C26.0527 1111.89 23.9108 1114.21 23.9108 1118.39C23.9108 1121.71 26.0527 1123.89 30.2694 1124.9V1133.68C26.407 1133.4 26.4041 1131.88 26.4041 1128.89C26.4041 1128.75 26.3372 1128.6 26.2217 1128.51C26.1061 1128.42 25.954 1128.38 25.8086 1128.41L24.1747 1128.74C23.936 1128.79 23.7679 1129 23.778 1129.25C23.9377 1133.25 24.5092 1135.96 30.2694 1136.34V1141.19C30.2694 1141.37 30.4173 1141.52 30.6001 1141.52H32.9164C33.0997 1141.52 33.2476 1141.37 33.2476 1141.19V1136.31C37.5525 1135.89 39.7394 1133.57 39.7394 1129.39ZM37.0797 1129.39C37.0797 1131.91 35.8493 1133.28 33.2476 1133.63V1125.67C35.7887 1126.53 37.0797 1127.78 37.0797 1129.39ZM30.2694 1122.07C27.8161 1121.21 26.5705 1119.98 26.5705 1118.39C26.5705 1115.88 27.7576 1114.51 30.2694 1114.15V1122.07Z" fill="white"/>
</g>
<g clip-path="url(#clip2)">
<path d="M18.2439 193.523C18.4236 194.139 18.6729 194.733 18.9882 195.29L18.0899 196.423C17.7966 196.793 17.8296 197.321 18.1596 197.655L19.7069 199.202C20.0405 199.536 20.5685 199.565 20.9388 199.272L22.0645 198.381C22.6438 198.715 23.2598 198.975 23.9014 199.158L24.0701 200.607C24.1251 201.076 24.5211 201.428 24.9904 201.428H27.1793C27.6487 201.428 28.0447 201.076 28.0997 200.607L28.261 199.21C28.9503 199.03 29.6103 198.762 30.2299 198.414L31.3189 199.276C31.6892 199.569 32.2172 199.536 32.5509 199.206L34.0982 197.659C34.4318 197.325 34.4612 196.797 34.1678 196.427L33.3208 195.352C33.6728 194.744 33.9478 194.095 34.1312 193.417L35.4365 193.266C35.9058 193.211 36.2578 192.815 36.2578 192.346V190.157C36.2578 189.688 35.9058 189.292 35.4365 189.237L34.1495 189.086C33.9735 188.415 33.7095 187.774 33.3722 187.172L34.1642 186.171C34.4575 185.801 34.4245 185.273 34.0945 184.939L32.5509 183.396C32.2172 183.062 31.6893 183.033 31.3189 183.326L30.3473 184.096C29.7166 183.726 29.042 183.443 28.3343 183.253L28.1877 181.995C28.1327 181.526 27.7367 181.174 27.2674 181.174H25.0784C24.6091 181.174 24.2131 181.526 24.1581 181.995L24.0115 183.253C23.2855 183.447 22.5925 183.74 21.9472 184.125L20.9389 183.326C20.5685 183.033 20.0406 183.066 19.7069 183.396L18.1596 184.943C17.826 185.277 17.7966 185.805 18.0899 186.175L18.9333 187.242C18.5959 187.851 18.3393 188.5 18.1706 189.174L16.8213 189.328C16.352 189.383 16 189.779 16 190.249V192.438C16 192.907 16.352 193.303 16.8213 193.358L18.2439 193.523ZM26.1747 187.601C28.1693 187.601 29.7936 189.226 29.7936 191.22C29.7936 193.215 28.1693 194.839 26.1747 194.839C24.1801 194.839 22.5558 193.215 22.5558 191.22C22.5558 189.226 24.1801 187.601 26.1747 187.601Z" fill="white"/>
<path d="M47.8147 194.062L46.6597 193.087C46.3041 192.786 45.7797 192.801 45.4424 193.12L44.8045 193.717C44.2655 193.457 43.6935 193.274 43.1032 193.167L42.9236 192.287C42.8319 191.833 42.4103 191.517 41.9482 191.554L40.4412 191.682C39.9793 191.723 39.6163 192.1 39.6016 192.566L39.5723 193.461C38.9929 193.67 38.4466 193.956 37.948 194.315L37.1854 193.809C36.7966 193.552 36.2797 193.626 35.9791 193.981L35.0038 195.144C34.7031 195.499 34.7177 196.024 35.0367 196.361L35.704 197.072C35.473 197.593 35.308 198.139 35.2127 198.7L34.2594 198.895C33.8047 198.986 33.4894 199.408 33.5261 199.87L33.6544 201.377C33.6948 201.839 34.0724 202.202 34.5381 202.217L35.5684 202.25C35.7554 202.741 36.0011 203.207 36.298 203.643L35.7224 204.512C35.4657 204.9 35.5391 205.417 35.8947 205.718L37.0497 206.693C37.4054 206.994 37.9296 206.979 38.267 206.66L39.0223 205.953C39.5173 206.184 40.0379 206.356 40.5732 206.459L40.7823 207.493C40.8739 207.947 41.2956 208.263 41.7576 208.226L43.2645 208.098C43.7265 208.057 44.0895 207.68 44.1042 207.214L44.1372 206.202C44.6872 206.008 45.2078 205.744 45.6881 205.417L46.5205 205.967C46.9091 206.224 47.4261 206.151 47.7268 205.795L48.7021 204.64C49.0027 204.284 48.988 203.76 48.6691 203.423L47.9981 202.712C48.2437 202.191 48.4234 201.641 48.526 201.076L49.4427 200.889C49.8973 200.798 50.2127 200.376 50.176 199.914L50.0477 198.407C50.0073 197.945 49.6297 197.582 49.164 197.567L48.2437 197.538C48.053 197.003 47.7964 196.497 47.4774 196.027L47.9797 195.272C48.2437 194.883 48.1704 194.363 47.8147 194.062ZM42.1352 202.774C40.5073 202.913 39.0699 201.7 38.9343 200.072C38.7949 198.444 40.0086 197.006 41.6365 196.871C43.2645 196.731 44.7018 197.945 44.8375 199.573C44.9768 201.201 43.7631 202.638 42.1352 202.774Z" fill="white"/>
<path d="M23.5165 206.829C23.0545 206.876 22.6989 207.265 22.6952 207.731L22.6842 208.658C22.6769 209.124 23.0215 209.52 23.4835 209.579L24.1655 209.667C24.2792 210.081 24.4405 210.477 24.6495 210.851L24.2095 211.394C23.9162 211.757 23.9382 212.277 24.2645 212.611L24.9135 213.275C25.2398 213.608 25.7605 213.645 26.1308 213.359L26.6771 212.937C27.062 213.165 27.4691 213.344 27.8944 213.469L27.9677 214.173C28.0154 214.635 28.404 214.991 28.8697 214.994L29.7973 215.005C30.263 215.013 30.659 214.668 30.7177 214.206L30.802 213.539C31.264 213.425 31.704 213.253 32.122 213.025L32.6353 213.44C32.9983 213.733 33.519 213.711 33.8526 213.385L34.5163 212.736C34.8499 212.409 34.8866 211.889 34.6006 211.518L34.2082 211.009C34.4502 210.605 34.6373 210.176 34.7656 209.725L35.3742 209.663C35.8362 209.615 36.1918 209.227 36.1956 208.761L36.2065 207.833C36.2139 207.368 35.8692 206.972 35.4072 206.913L34.8132 206.836C34.6996 206.389 34.5309 205.956 34.3109 205.553L34.6813 205.098C34.9746 204.735 34.9526 204.214 34.6263 203.881L33.9773 203.217C33.651 202.883 33.1303 202.847 32.76 203.133L32.3163 203.474C31.8983 203.221 31.451 203.026 30.9817 202.894L30.923 202.319C30.8753 201.857 30.4867 201.501 30.021 201.497L29.0934 201.486C28.6277 201.479 28.2317 201.824 28.173 202.286L28.0997 202.858C27.6157 202.982 27.1501 203.173 26.7174 203.422L26.2591 203.048C25.8961 202.755 25.3754 202.777 25.0418 203.103L24.3744 203.756C24.0408 204.082 24.0041 204.603 24.2901 204.973L24.6824 205.479C24.4551 205.883 24.2755 206.312 24.1581 206.763L23.5165 206.829ZM29.504 205.78C30.835 205.795 31.9019 206.891 31.8873 208.222C31.8726 209.553 30.7763 210.62 29.4453 210.605C28.1144 210.591 27.0474 209.494 27.062 208.163C27.0768 206.832 28.1731 205.765 29.504 205.78Z" fill="white"/>
</g>
<path d="M32.5005 527.65C35.9471 527.65 38.7415 524.147 38.7415 519.825C38.7415 515.503 37.8241 512 32.5005 512C27.1769 512 26.2593 515.503 26.2593 519.825C26.2593 524.147 29.0536 527.65 32.5005 527.65Z" fill="white"/>
<path d="M20.7122 539.598C20.7111 539.335 20.71 539.524 20.7122 539.598V539.598Z" fill="white"/>
<path d="M44.2878 539.804C44.2913 539.732 44.289 539.303 44.2878 539.804V539.804Z" fill="white"/>
<path d="M44.2746 539.282C44.159 531.754 43.2065 529.608 35.9177 528.25C35.9177 528.25 34.8916 529.6 32.5002 529.6C30.1088 529.6 29.0826 528.25 29.0826 528.25C21.8733 529.594 20.8629 531.707 20.73 539.037C20.7192 539.636 20.7141 539.667 20.7122 539.598C20.7126 539.728 20.7131 539.969 20.7131 540.389C20.7131 540.389 22.4484 544 32.5002 544C42.5518 544 44.2873 540.389 44.2873 540.389C44.2873 540.119 44.2875 539.931 44.2878 539.804C44.2858 539.847 44.2819 539.764 44.2746 539.282Z" fill="white"/>
<defs>
<clipPath id="clip0">
<rect width="38" height="38" fill="white" transform="translate(13 914)"/>
</clipPath>
<clipPath id="clip1">
<rect width="35.517" height="35.5174" fill="white" transform="translate(14 1106)"/>
</clipPath>
<clipPath id="clip2">
<rect width="34.179" height="34.179" fill="white" transform="translate(16 181)"/>
</clipPath>
</defs>
</svg>
