<svg width="46" height="46" viewBox="0 0 46 46" fill="none" xmlns="http://www.w3.org/2000/svg">
<path d="M40.6094 3.23438H5.39062C2.41823 3.23438 0 5.65261 0 8.625V30.1875C0 33.1599 2.41823 35.5781 5.39062 35.5781H21.2031V39.1719H11.8594V42.7656H34.1406V39.1719H24.7969V35.5781H40.6094C43.5818 35.5781 46 33.1599 46 30.1875V8.625C46 5.65261 43.5818 3.23438 40.6094 3.23438ZM42.4062 30.1875C42.4062 31.1783 41.6002 31.9844 40.6094 31.9844H5.39062C4.39983 31.9844 3.59375 31.1783 3.59375 30.1875V8.625C3.59375 7.6342 4.39983 6.82812 5.39062 6.82812H40.6094C41.6002 6.82812 42.4062 7.6342 42.4062 8.625V30.1875Z" fill="white"/>
</svg>
