<svg width="1366" height="5475" viewBox="0 0 1366 5475" fill="none" xmlns="http://www.w3.org/2000/svg">
<g clip-path="url(#clip0)">
<rect width="1366" height="5475" fill="black"/>
<g clip-path="url(#clip1)">
<rect width="1366" height="850.982" fill="black"/>
<path d="M1283.41 0L1854.61 850.975H712.733L1283.41 0Z" fill="url(#paint0_radial)" fill-opacity="0.4"/>
<path d="M1365.53 0L1936.73 850.975H793.964L1365.53 0Z" fill="url(#paint1_radial)" fill-opacity="0.73"/>
</g>
<g clip-path="url(#clip2)">
<rect width="1366" height="850.982" transform="translate(0 850.982)" fill="black"/>
<path d="M-30.8279 945.587L-549.464 1718.26H487.809L-30.8279 945.587Z" fill="url(#paint2_radial)" fill-opacity="0.73"/>
<path d="M1334.55 1656.38L1876.22 849.393H792.882L1334.55 1656.38Z" fill="url(#paint3_radial)" fill-opacity="0.73"/>
<path d="M1296.22 1720.26L1882.84 846.316H709.602L1296.22 1720.26Z" fill="url(#paint4_radial)" fill-opacity="0.4"/>
</g>
<g clip-path="url(#clip3)">
<rect width="1366" height="850.982" transform="translate(0 2552.95)" fill="black"/>
<path d="M-73.1483 2643L-584.148 3404L437.352 3404L-73.1483 2643Z" fill="url(#paint5_radial)" fill-opacity="0.73"/>
<path d="M-261.102 2488.11L-886.148 3419.31H364.513L-261.102 2488.11Z" fill="url(#paint6_radial)" fill-opacity="0.4"/>
<path d="M1270.5 3343.56L1803.91 2548.88L737.852 2549.5L1270.5 3343.56Z" fill="url(#paint7_radial)" fill-opacity="0.73"/>
</g>
<g clip-path="url(#clip4)">
<rect width="1366" height="850.982" transform="translate(0 4434)" fill="black"/>
<path d="M1279.65 5226.68L1813.06 4432L747 4433L1279.65 5226.68Z" fill="url(#paint8_radial)" fill-opacity="0.73"/>
</g>
<path d="M65.0001 4729.89L-446 5490.89L575.5 5490.89L65.0001 4729.89Z" fill="url(#paint9_radial)" fill-opacity="0.73"/>
<path d="M-122.953 4575L-748 5506.2H502.662L-122.953 4575Z" fill="url(#paint10_radial)" fill-opacity="0.4"/>
<g clip-path="url(#clip5)">
<rect width="1366" height="850.982" transform="translate(0 1701.96)" fill="black"/>
<path d="M-14.1669 2433.37L-505.187 1701.84H476.949L-14.1669 2433.37Z" fill="url(#paint11_radial)" fill-opacity="0.73"/>
<path d="M1301.39 1716.99L1866.92 2559.52H735.625L1301.39 1716.99Z" fill="url(#paint12_radial)" fill-opacity="0.73"/>
</g>
<g clip-path="url(#clip6)">
<rect width="1366" height="850.982" transform="translate(0 1701.96)" fill="black"/>
<path d="M-14.1669 2433.37L-505.187 1701.84H476.949L-14.1669 2433.37Z" fill="url(#paint13_radial)" fill-opacity="0.73"/>
<path d="M1301.39 1716.99L1866.92 2559.52H735.625L1301.39 1716.99Z" fill="url(#paint14_radial)" fill-opacity="0.73"/>
</g>
<g clip-path="url(#clip7)">
<rect width="1366" height="1030" transform="translate(0 3404)" fill="black"/>
<path d="M-41.9598 4119.07L-522.148 3403.07L437.852 3403.18L-41.9598 4119.07Z" fill="url(#paint15_radial)" fill-opacity="0.73"/>
<path d="M-282.034 4351.64L-923.954 3395.3H359.993L-282.034 4351.64Z" fill="url(#paint16_radial)" fill-opacity="0.4"/>
<path d="M1361.5 3404L2079.06 4607.9L646 4604.57L1361.5 3404Z" fill="url(#paint17_radial)" fill-opacity="0.73"/>
</g>
<rect y="5285" width="1366" height="190" fill="url(#paint18_linear)"/>
</g>
<defs>
<radialGradient id="paint0_radial" cx="0" cy="0" r="1" gradientUnits="userSpaceOnUse" gradientTransform="translate(855.177 865.699) rotate(-48.8828) scale(918.816 1068.22)">
<stop stop-color="#058CFB" stop-opacity="0.32"/>
<stop offset="1" stop-color="#0243FF" stop-opacity="0"/>
</radialGradient>
<radialGradient id="paint1_radial" cx="0" cy="0" r="1" gradientUnits="userSpaceOnUse" gradientTransform="translate(937.29 865.699) rotate(-48.8828) scale(918.816 1068.22)">
<stop stop-color="#058CFB" stop-opacity="0.32"/>
<stop offset="1" stop-color="#0243FF" stop-opacity="0"/>
</radialGradient>
<radialGradient id="paint2_radial" cx="0" cy="0" r="1" gradientUnits="userSpaceOnUse" gradientTransform="translate(358.003 1731.62) rotate(-131.117) scale(834.266 969.919)">
<stop stop-color="#058CFB" stop-opacity="0.32"/>
<stop offset="1" stop-color="#0243FF" stop-opacity="0"/>
</radialGradient>
<radialGradient id="paint3_radial" cx="0" cy="0" r="1" gradientUnits="userSpaceOnUse" gradientTransform="translate(928.453 835.431) rotate(48.8828) scale(871.318 1013)">
<stop stop-color="#058CFB" stop-opacity="0.32"/>
<stop offset="1" stop-color="#0243FF" stop-opacity="0"/>
</radialGradient>
<radialGradient id="paint4_radial" cx="0" cy="0" r="1" gradientUnits="userSpaceOnUse" gradientTransform="translate(856.423 831.195) rotate(48.8828) scale(943.62 1097.05)">
<stop stop-color="#058CFB" stop-opacity="0.32"/>
<stop offset="1" stop-color="#0243FF" stop-opacity="0"/>
</radialGradient>
<radialGradient id="paint5_radial" cx="0" cy="0" r="1" gradientUnits="userSpaceOnUse" gradientTransform="translate(310.467 3418.05) rotate(-131.128) scale(821.804 955.48)">
<stop stop-color="#058CFB" stop-opacity="0.32"/>
<stop offset="1" stop-color="#0243FF" stop-opacity="0"/>
</radialGradient>
<radialGradient id="paint6_radial" cx="0" cy="0" r="1" gradientUnits="userSpaceOnUse" gradientTransform="translate(204.445 3435.42) rotate(-131.117) scale(1005.43 1168.92)">
<stop stop-color="#058CFB" stop-opacity="0.32"/>
<stop offset="1" stop-color="#0243FF" stop-opacity="0"/>
</radialGradient>
<radialGradient id="paint7_radial" cx="0" cy="0" r="1" gradientUnits="userSpaceOnUse" gradientTransform="translate(870.593 2535.13) rotate(48.8828) scale(858.028 997.545)">
<stop stop-color="#058CFB" stop-opacity="0.32"/>
<stop offset="1" stop-color="#0243FF" stop-opacity="0"/>
</radialGradient>
<radialGradient id="paint8_radial" cx="0" cy="0" r="1" gradientUnits="userSpaceOnUse" gradientTransform="translate(879.742 4418.25) rotate(48.8828) scale(858.028 997.545)">
<stop stop-color="#058CFB" stop-opacity="0.32"/>
<stop offset="1" stop-color="#0243FF" stop-opacity="0"/>
</radialGradient>
<radialGradient id="paint9_radial" cx="0" cy="0" r="1" gradientUnits="userSpaceOnUse" gradientTransform="translate(448.615 5504.94) rotate(-131.128) scale(821.804 955.48)">
<stop stop-color="#058CFB" stop-opacity="0.32"/>
<stop offset="1" stop-color="#0243FF" stop-opacity="0"/>
</radialGradient>
<radialGradient id="paint10_radial" cx="0" cy="0" r="1" gradientUnits="userSpaceOnUse" gradientTransform="translate(342.593 5522.31) rotate(-131.117) scale(1005.43 1168.92)">
<stop stop-color="#058CFB" stop-opacity="0.32"/>
<stop offset="1" stop-color="#0243FF" stop-opacity="0"/>
</radialGradient>
<radialGradient id="paint11_radial" cx="0" cy="0" r="1" gradientUnits="userSpaceOnUse" gradientTransform="translate(353.959 1689.18) rotate(131.117) scale(789.843 918.273)">
<stop stop-color="#058CFB" stop-opacity="0.32"/>
<stop offset="1" stop-color="#0243FF" stop-opacity="0"/>
</radialGradient>
<radialGradient id="paint12_radial" cx="0" cy="0" r="1" gradientUnits="userSpaceOnUse" gradientTransform="translate(877.406 2574.1) rotate(-48.8828) scale(909.698 1057.62)">
<stop stop-color="#058CFB" stop-opacity="0.32"/>
<stop offset="1" stop-color="#0243FF" stop-opacity="0"/>
</radialGradient>
<radialGradient id="paint13_radial" cx="0" cy="0" r="1" gradientUnits="userSpaceOnUse" gradientTransform="translate(353.959 1689.18) rotate(131.117) scale(789.843 918.273)">
<stop stop-color="#058CFB" stop-opacity="0.32"/>
<stop offset="1" stop-color="#0243FF" stop-opacity="0"/>
</radialGradient>
<radialGradient id="paint14_radial" cx="0" cy="0" r="1" gradientUnits="userSpaceOnUse" gradientTransform="translate(877.406 2574.1) rotate(-48.8828) scale(909.698 1057.62)">
<stop stop-color="#058CFB" stop-opacity="0.32"/>
<stop offset="1" stop-color="#0243FF" stop-opacity="0"/>
</radialGradient>
<radialGradient id="paint15_radial" cx="0" cy="0" r="1" gradientUnits="userSpaceOnUse" gradientTransform="translate(318.046 3390.68) rotate(131.093) scale(772.795 898.348)">
<stop stop-color="#058CFB" stop-opacity="0.32"/>
<stop offset="1" stop-color="#0243FF" stop-opacity="0"/>
</radialGradient>
<radialGradient id="paint16_radial" cx="0" cy="0" r="1" gradientUnits="userSpaceOnUse" gradientTransform="translate(199.225 3378.75) rotate(131.117) scale(1032.58 1200.48)">
<stop stop-color="#058CFB" stop-opacity="0.32"/>
<stop offset="1" stop-color="#0243FF" stop-opacity="0"/>
</radialGradient>
<radialGradient id="paint17_radial" cx="0" cy="0" r="1" gradientUnits="userSpaceOnUse" gradientTransform="translate(823.531 4628.73) rotate(-52.2208) scale(1239 1407.86)">
<stop stop-color="#058CFB" stop-opacity="0.32"/>
<stop offset="1" stop-color="#0243FF" stop-opacity="0"/>
</radialGradient>
<linearGradient id="paint18_linear" x1="683" y1="5304.19" x2="683" y2="5475" gradientUnits="userSpaceOnUse">
<stop stop-opacity="0"/>
<stop offset="1"/>
</linearGradient>
<clipPath id="clip0">
<rect width="1366" height="5475" fill="white"/>
</clipPath>
<clipPath id="clip1">
<rect width="1366" height="850.982" fill="white"/>
</clipPath>
<clipPath id="clip2">
<rect width="1366" height="850.982" fill="white" transform="translate(0 850.982)"/>
</clipPath>
<clipPath id="clip3">
<rect width="1366" height="850.982" fill="white" transform="translate(0 2552.95)"/>
</clipPath>
<clipPath id="clip4">
<rect width="1366" height="850.982" fill="white" transform="translate(0 4434)"/>
</clipPath>
<clipPath id="clip5">
<rect width="1366" height="850.982" fill="white" transform="translate(0 1701.96)"/>
</clipPath>
<clipPath id="clip6">
<rect width="1366" height="850.982" fill="white" transform="translate(0 1701.96)"/>
</clipPath>
<clipPath id="clip7">
<rect width="1366" height="1030" fill="white" transform="translate(0 3404)"/>
</clipPath>
</defs>
</svg>
