<svg width="47" height="47" viewBox="0 0 47 47" fill="none" xmlns="http://www.w3.org/2000/svg">
<g clip-path="url(#clip0)">
<path d="M45.9423 44.468H1.62041C1.08855 44.468 0.65686 44.8996 0.65686 45.4314C0.65686 45.9633 1.08855 46.395 1.62041 46.395H45.9424C46.4743 46.395 46.906 45.9633 46.906 45.4314C46.9059 44.8996 46.4742 44.468 45.9423 44.468Z" fill="white"/>
<path d="M9.32854 32.906H3.54741C3.01555 32.906 2.58386 33.3377 2.58386 33.8696V45.4318C2.58386 45.9636 3.01555 46.3953 3.54741 46.3953H9.32854C9.8604 46.3953 10.2921 45.9636 10.2921 45.4317V33.8695C10.2921 33.3376 9.8604 32.906 9.32854 32.906ZM8.36499 44.4683H4.51096V34.833H8.36508V44.4683H8.36499Z" fill="white"/>
<path d="M20.8909 23.2704H15.1098C14.5779 23.2704 14.1462 23.702 14.1462 24.2339V45.4314C14.1462 45.9633 14.5779 46.3949 15.1098 46.3949H20.8909C21.4228 46.3949 21.8545 45.9633 21.8545 45.4314V24.2339C21.8545 23.702 21.4228 23.2704 20.8909 23.2704ZM19.9274 44.4678H16.0733V25.1974H19.9274V44.4678Z" fill="white"/>
<path d="M32.4529 27.1248H26.6718C26.1399 27.1248 25.7083 27.5565 25.7083 28.0884V45.4317C25.7083 45.9636 26.1399 46.3953 26.6718 46.3953H32.4529C32.9848 46.3953 33.4165 45.9636 33.4165 45.4317V28.0884C33.4165 27.5564 32.9848 27.1248 32.4529 27.1248ZM31.4894 44.4682H27.6353V29.0518H31.4894V44.4682Z" fill="white"/>
<path d="M44.0154 15.5625H38.2343C37.7024 15.5625 37.2708 15.9942 37.2708 16.526V45.4317C37.2708 45.9635 37.7024 46.3952 38.2343 46.3952H44.0154C44.5473 46.3952 44.979 45.9635 44.979 45.4317V16.526C44.979 15.9941 44.5473 15.5625 44.0154 15.5625ZM43.0519 44.4681H39.1978V17.4895H43.0519V44.4681Z" fill="white"/>
<path d="M6.43798 17.4895C4.31242 17.4895 2.58386 19.2181 2.58386 21.3436C2.58386 23.4692 4.31242 25.1977 6.43798 25.1977C8.56353 25.1977 10.2921 23.4692 10.2921 21.3436C10.2921 19.2181 8.56353 17.4895 6.43798 17.4895ZM6.43798 23.2706C5.37425 23.2706 4.51096 22.4054 4.51096 21.3436C4.51096 20.2818 5.37425 19.4166 6.43798 19.4166C7.5017 19.4166 8.36499 20.2819 8.36499 21.3436C8.36499 22.4054 7.5017 23.2706 6.43798 23.2706Z" fill="white"/>
<path d="M18.0004 7.85422C15.8748 7.85422 14.1462 9.58277 14.1462 11.7083C14.1462 13.8339 15.8748 15.5624 18.0004 15.5624C20.1259 15.5624 21.8545 13.8339 21.8545 11.7083C21.8545 9.58277 20.1259 7.85422 18.0004 7.85422ZM18.0004 13.6353C16.9366 13.6353 16.0733 12.7701 16.0733 11.7083C16.0733 10.6465 16.9366 9.78132 18.0004 9.78132C19.0641 9.78132 19.9274 10.6466 19.9274 11.7083C19.9274 12.7702 19.0641 13.6353 18.0004 13.6353Z" fill="white"/>
<path d="M29.5624 11.7083C27.4368 11.7083 25.7083 13.4369 25.7083 15.5624C25.7083 17.688 27.4368 19.4165 29.5624 19.4165C31.6879 19.4165 33.4165 17.688 33.4165 15.5624C33.4165 13.4369 31.6879 11.7083 29.5624 11.7083ZM29.5624 17.4894C28.4986 17.4894 27.6354 16.6242 27.6354 15.5624C27.6354 14.5006 28.4986 13.6354 29.5624 13.6354C30.6261 13.6354 31.4894 14.5007 31.4894 15.5624C31.4894 16.6242 30.6261 17.4894 29.5624 17.4894Z" fill="white"/>
<path d="M41.1249 0.146057C38.9993 0.146057 37.2708 1.87461 37.2708 4.00017C37.2708 6.12573 38.9993 7.85429 41.1249 7.85429C43.2504 7.85429 44.979 6.12573 44.979 4.00017C44.979 1.87461 43.2504 0.146057 41.1249 0.146057ZM41.1249 5.92718C40.0611 5.92718 39.1979 5.06191 39.1979 4.00017C39.1979 2.93834 40.0611 2.07316 41.1249 2.07316C42.1886 2.07316 43.0519 2.93843 43.0519 4.00017C43.0519 5.06191 42.1886 5.92718 41.1249 5.92718Z" fill="white"/>
<path d="M39.7642 5.36078C39.3885 4.98501 38.7776 4.98501 38.4018 5.36078L30.9249 12.8377C30.5491 13.2134 30.5491 13.8243 30.9249 14.2001C31.1138 14.387 31.3604 14.4815 31.6071 14.4815C31.8518 14.4815 32.0985 14.389 32.2873 14.2001L39.7642 6.72323C40.14 6.34745 40.14 5.73655 39.7642 5.36078Z" fill="white"/>
<path d="M27.2329 13.3385L21.0432 11.5733C20.5248 11.423 19.9987 11.7236 19.8542 12.2363C19.7077 12.7489 20.0045 13.2808 20.5151 13.4272L26.7048 15.1923C26.7934 15.2173 26.8821 15.2289 26.9688 15.2289C27.389 15.2289 27.7743 14.9533 27.8957 14.5294C28.0422 14.0188 27.7455 13.4849 27.2329 13.3385Z" fill="white"/>
<path d="M16.4973 12.9088C16.1659 12.4926 15.5608 12.4251 15.1446 12.7546L7.87957 18.5473C7.46333 18.8807 7.39396 19.4857 7.72737 19.902C7.91815 20.1409 8.19952 20.2643 8.48081 20.2643C8.69083 20.2643 8.90283 20.1949 9.08015 20.0562L16.3451 14.2635C16.7614 13.9301 16.8307 13.3251 16.4973 12.9088Z" fill="white"/>
</g>
<defs>
<clipPath id="clip0">
<rect width="46.249" height="46.249" fill="white" transform="translate(0.656982 0.146057)"/>
</clipPath>
</defs>
</svg>
