<svg width="47" height="47" viewBox="0 0 47 47" fill="none" xmlns="http://www.w3.org/2000/svg">
<g clip-path="url(#clip0)">
<path d="M42.5975 5.84703C37.255 0.474404 28.4379 0.741478 23.3514 6.32613C18.2644 0.741676 9.44776 0.474305 4.10528 5.84713C-1.20736 11.1378 -1.02638 19.85 4.44747 24.9564C1.64704 27.631 3.25137 32.4372 7.06306 32.9057C6.83474 35.5158 9.05624 37.9093 11.684 37.8649C11.8451 40.7382 14.729 42.7949 17.4938 42.0356C18.4009 45.4587 22.7614 46.6284 25.263 44.109C26.6838 42.6967 27.8137 41.8061 27.8857 39.6672C30.2333 39.6017 32.2646 37.5429 32.3004 35.1967C34.6705 35.1601 36.7355 33.0944 36.772 30.7249C39.2309 30.6876 41.3628 28.4683 41.2483 25.963L42.5973 24.6142C47.7715 19.4401 47.7715 11.0211 42.5975 5.84703ZM6.48137 27.1161L7.74835 25.8491C8.07581 25.5216 8.50578 25.3579 8.93595 25.3579C10.4109 25.3481 11.1808 27.1717 10.1234 28.2241L8.85638 29.4911C7.21637 31.0009 4.97134 28.7568 6.48137 27.1161ZM10.0141 33.2226C10.0141 32.7739 10.1889 32.3522 10.5061 32.035L11.7737 30.7674C12.0908 30.4506 12.5123 30.2762 12.9606 30.2762C14.448 30.2736 15.202 32.0929 14.1481 33.1431L13.0301 34.261C12.6884 34.6483 12.219 34.9103 11.6935 34.9019C10.7909 34.9205 9.99545 34.1253 10.0141 33.2226ZM15.1269 38.7327C14.4754 38.1076 14.4754 36.9829 15.1269 36.3578L16.2448 35.2398C16.8966 34.466 18.0408 34.3653 18.769 35.0907C19.4237 35.7456 19.4237 36.8108 18.769 37.4657L17.5019 38.7328C16.8472 39.3878 15.7817 39.3878 15.1269 38.7327ZM24.4333 40.7453L23.1663 42.0122C22.8491 42.3294 22.4274 42.5042 21.9788 42.5042C21.5302 42.5042 21.1084 42.3294 20.7912 42.0122C20.1398 41.3871 20.1396 40.2623 20.7913 39.6372L22.0582 38.3703C22.7129 37.7154 23.7785 37.7154 24.4332 38.3702C25.0848 38.9953 25.0849 40.1201 24.4333 40.7453ZM37.7929 27.2739C37.1677 27.9254 36.043 27.9255 35.4179 27.2739L28.8194 20.6754L26.7226 22.7722L33.3211 29.3707C33.9758 30.0255 33.9758 31.0908 33.3211 31.7457C32.6663 32.4007 31.6009 32.4005 30.9461 31.7457L24.4595 25.2591L24.3476 25.1472L22.2508 27.244L22.3627 27.3558L28.8493 33.8424C29.5042 34.4973 29.5042 35.5627 28.8493 36.2175C28.1945 36.8724 27.1291 36.8724 26.4742 36.2175L26.4729 36.2188C25.2681 35.0541 23.5843 34.6706 22.0635 35.0683C21.5794 33.09 19.5908 31.5924 17.591 31.636C17.494 29.5067 15.6939 27.5832 13.5666 27.3534C13.8473 23.7001 9.83503 21.1843 6.66868 22.9839C2.25888 19.0448 1.98726 12.1298 6.20224 7.9438C10.393 3.72368 17.3174 4.00331 21.2548 8.42289L17.5891 12.0886L20.5264 15.0259C22.7827 17.2824 26.2596 17.5929 28.852 15.9576L37.7932 24.8989C38.4476 25.5536 38.4476 26.6191 37.7929 27.2739ZM40.5007 22.5175L40.0489 22.9692C39.9974 22.9124 39.9443 22.8567 39.8897 22.8021L28.9685 11.8808L27.9201 12.9292C26.4598 14.3895 24.0836 14.3897 22.623 12.9292L21.7824 12.0886L25.9272 7.9438C35.9955 -1.32306 49.7656 12.4557 40.5007 22.5175Z" fill="white"/>
</g>
<defs>
<clipPath id="clip0">
<rect width="46.249" height="46.249" fill="white" transform="translate(0.22876 0.593353)"/>
</clipPath>
</defs>
</svg>
